<svg xmlns="http://www.w3.org/2000/svg" xmlns:xlink="http://www.w3.org/1999/xlink" width="500" zoomAndPan="magnify" viewBox="0 0 375 374.999991" height="500" preserveAspectRatio="xMidYMid meet" version="1.0"><defs><g/><clipPath id="id1"><path d="M 3.972656 0 L 375 0 L 375 375 L 3.972656 375 Z M 3.972656 0 " clip-rule="nonzero"/></clipPath><clipPath id="id2"><path d="M 107.777344 89.796875 L 375 89.796875 L 375 374.039062 L 107.777344 374.039062 Z M 107.777344 89.796875 " clip-rule="nonzero"/></clipPath><clipPath id="id3"><path d="M 237.972656 219.992188 L 261.972656 219.992188 L 261.972656 243.992188 L 237.972656 243.992188 Z M 237.972656 219.992188 " clip-rule="nonzero"/></clipPath></defs><rect x="-37.5" width="450" fill="#ffffff" y="-37.499999" height="449.999989" fill-opacity="1"/><rect x="-37.5" width="450" fill="#57896a" y="-37.499999" height="449.999989" fill-opacity="1"/><rect x="-37.5" width="450" fill="#ffffff" y="-37.499999" height="449.999989" fill-opacity="1"/><rect x="-37.5" width="450" fill="#57896a" y="-37.499999" height="449.999989" fill-opacity="1"/><g clip-path="url(#id1)"><path fill="#dc7726" d="M 249.8125 477.671875 C 184.175781 477.671875 122.375 452.128906 75.996094 405.652344 C 29.519531 359.273438 3.972656 297.472656 3.972656 231.835938 C 3.972656 166.199219 29.519531 104.394531 75.996094 58.019531 C 122.375 11.542969 184.175781 -14.003906 249.8125 -14.003906 C 315.449219 -14.003906 377.25 11.542969 423.628906 58.019531 C 470.105469 104.496094 495.652344 166.199219 495.652344 231.835938 C 495.652344 297.472656 470.105469 359.273438 423.628906 405.652344 C 377.25 452.125 315.449219 477.671875 249.8125 477.671875 Z M 249.8125 0.734375 C 188.105469 0.734375 130.039062 24.808594 86.410156 68.433594 C 42.785156 112.058594 18.710938 170.128906 18.710938 231.835938 C 18.710938 293.539062 42.785156 351.609375 86.410156 395.238281 C 130.039062 438.863281 188.105469 462.933594 249.8125 462.933594 C 311.519531 462.933594 369.585938 438.863281 413.214844 395.238281 C 456.839844 351.609375 480.914062 293.539062 480.914062 231.835938 C 480.914062 170.128906 456.839844 112.058594 413.214844 68.433594 C 369.585938 24.808594 311.519531 0.734375 249.8125 0.734375 Z M 249.8125 0.734375 " fill-opacity="1" fill-rule="nonzero"/></g><g clip-path="url(#id2)"><path fill="#4a545d" d="M 249.894531 374.039062 C 211.953125 374.039062 176.222656 359.269531 149.410156 332.402344 C 122.542969 305.589844 107.777344 269.863281 107.777344 231.917969 C 107.777344 193.972656 122.542969 158.246094 149.410156 131.433594 C 176.222656 104.566406 211.953125 89.796875 249.894531 89.796875 C 287.839844 89.796875 323.566406 104.566406 350.378906 131.433594 C 377.246094 158.300781 392.015625 193.972656 392.015625 231.917969 C 392.015625 269.863281 377.246094 305.589844 350.378906 332.402344 C 323.566406 359.269531 287.839844 374.039062 249.894531 374.039062 Z M 249.894531 98.320312 C 214.222656 98.320312 180.652344 112.234375 155.433594 137.457031 C 130.210938 162.675781 116.296875 196.246094 116.296875 231.917969 C 116.296875 267.589844 130.210938 301.160156 155.433594 326.382812 C 180.652344 351.601562 214.222656 365.519531 249.894531 365.519531 C 285.566406 365.519531 319.136719 351.601562 344.359375 326.382812 C 369.578125 301.160156 383.496094 267.589844 383.496094 231.917969 C 383.496094 196.246094 369.578125 162.675781 344.359375 137.457031 C 319.136719 112.234375 285.566406 98.320312 249.894531 98.320312 Z M 249.894531 98.320312 " fill-opacity="1" fill-rule="nonzero"/></g><g clip-path="url(#id3)"><path fill="#fdfdfd" d="M 249.972656 219.992188 C 243.34375 219.992188 237.972656 225.367188 237.972656 231.992188 C 237.972656 238.621094 243.34375 243.992188 249.972656 243.992188 C 256.597656 243.992188 261.972656 238.621094 261.972656 231.992188 C 261.972656 225.367188 256.597656 219.992188 249.972656 219.992188 " fill-opacity="1" fill-rule="nonzero"/></g><g fill="#ddc077" fill-opacity="1"><g transform="translate(163.687494, 217.180152)"><g><path d="M 44.859375 -36.6875 C 44.859375 -30.675781 43.085938 -26.03125 39.546875 -22.75 C 36.003906 -19.476562 30.96875 -17.84375 24.4375 -17.84375 L 20.359375 -17.84375 L 20.359375 0 L 5.8125 0 L 5.8125 -53.8125 L 24.4375 -53.8125 C 31.226562 -53.8125 36.328125 -52.328125 39.734375 -49.359375 C 43.148438 -46.390625 44.859375 -42.164062 44.859375 -36.6875 Z M 20.359375 -29.703125 L 23 -29.703125 C 25.1875 -29.703125 26.921875 -30.3125 28.203125 -31.53125 C 29.492188 -32.757812 30.140625 -34.457031 30.140625 -36.625 C 30.140625 -40.25 28.128906 -42.0625 24.109375 -42.0625 L 20.359375 -42.0625 Z M 20.359375 -29.703125 "/></g></g></g></svg>