<svg xmlns="http://www.w3.org/2000/svg" xmlns:xlink="http://www.w3.org/1999/xlink" width="500" zoomAndPan="magnify" viewBox="0 0 375 374.999991" height="500" preserveAspectRatio="xMidYMid meet" version="1.0"><defs><g/><clipPath id="id1"><path d="M 162.960938 162.960938 L 375 162.960938 L 375 375 L 162.960938 375 Z M 162.960938 162.960938 " clip-rule="nonzero"/></clipPath><clipPath id="id2"><path d="M 313.421875 313.421875 L 337.421875 313.421875 L 337.421875 337.421875 L 313.421875 337.421875 Z M 313.421875 313.421875 " clip-rule="nonzero"/></clipPath></defs><rect x="-37.5" width="450" fill="#ffffff" y="-37.499999" height="449.999989" fill-opacity="1"/><rect x="-37.5" width="450" fill="#57896a" y="-37.499999" height="449.999989" fill-opacity="1"/><rect x="-37.5" width="450" fill="#ffffff" y="-37.499999" height="449.999989" fill-opacity="1"/><rect x="-37.5" width="450" fill="#57896a" y="-37.499999" height="449.999989" fill-opacity="1"/><path fill="#e8541d" d="M 325.585938 -22.039062 C 133.523438 -22.039062 -22.039062 133.523438 -22.039062 325.585938 C -22.039062 517.648438 133.523438 673.210938 325.585938 673.210938 C 517.648438 673.210938 673.210938 517.648438 673.210938 325.585938 C 673.210938 133.523438 517.648438 -22.039062 325.585938 -22.039062 Z M 325.585938 603.6875 C 171.9375 603.6875 47.488281 479.238281 47.488281 325.585938 C 47.488281 171.9375 171.9375 47.488281 325.585938 47.488281 C 479.238281 47.488281 603.6875 171.9375 603.6875 325.585938 C 603.6875 479.238281 479.238281 603.6875 325.585938 603.6875 Z M 325.585938 603.6875 " fill-opacity="1" fill-rule="nonzero"/><g clip-path="url(#id1)"><path fill="#e8541d" d="M 325.335938 162.960938 C 235.625 162.960938 162.960938 235.625 162.960938 325.335938 C 162.960938 415.046875 235.625 487.710938 325.335938 487.710938 C 415.046875 487.710938 487.710938 415.046875 487.710938 325.335938 C 487.710938 235.625 415.046875 162.960938 325.335938 162.960938 Z M 325.335938 455.238281 C 253.566406 455.238281 195.4375 397.105469 195.4375 325.335938 C 195.4375 253.566406 253.566406 195.4375 325.335938 195.4375 C 397.105469 195.4375 455.238281 253.566406 455.238281 325.335938 C 455.238281 397.105469 397.105469 455.238281 325.335938 455.238281 Z M 325.335938 455.238281 " fill-opacity="1" fill-rule="nonzero"/></g><g fill="#231f1d" fill-opacity="1"><g transform="translate(58.587217, 344.464875)"><g><path d="M 242.875 -198.640625 C 242.875 -166.097656 233.273438 -140.957031 214.078125 -123.21875 C 194.890625 -105.488281 167.628906 -96.625 132.296875 -96.625 L 110.1875 -96.625 L 110.1875 0 L 31.484375 0 L 31.484375 -291.296875 L 132.296875 -291.296875 C 169.085938 -291.296875 196.710938 -283.257812 215.171875 -267.1875 C 233.640625 -251.113281 242.875 -228.265625 242.875 -198.640625 Z M 110.1875 -160.78125 L 124.53125 -160.78125 C 136.351562 -160.78125 145.75 -164.101562 152.71875 -170.75 C 159.6875 -177.394531 163.171875 -186.5625 163.171875 -198.25 C 163.171875 -217.90625 152.28125 -227.734375 130.5 -227.734375 L 110.1875 -227.734375 Z M 110.1875 -160.78125 "/></g></g></g><g clip-path="url(#id2)"><path fill="#fdfdfd" d="M 325.421875 313.421875 C 318.796875 313.421875 313.421875 318.796875 313.421875 325.421875 C 313.421875 332.050781 318.796875 337.421875 325.421875 337.421875 C 332.050781 337.421875 337.421875 332.050781 337.421875 325.421875 C 337.421875 318.796875 332.050781 313.421875 325.421875 313.421875 " fill-opacity="1" fill-rule="nonzero"/></g></svg>